<svg xmlns="http://www.w3.org/2000/svg" width="720" height="420" viewBox="0 0 720 420"><rect width="100%" height="100%" fill="#ffffff" /><text x="24" y="36" font-size="22" font-family="Arial">PracticeLens Summary</text><text x="24" y="58" font-size="14" font-family="Arial">Overall score: 86.1/100</text><text x="24" y="87" font-size="13" font-family="Arial">pitch_fidelity</text><rect x="170" y="70" width="420" height="24" fill="#e5e7eb" rx="4" /><rect x="170" y="70" width="378.0" height="24" fill="#4f46e5" rx="4" /><text x="602" y="87" font-size="13" font-family="Arial">90.0</text><text x="24" y="129" font-size="13" font-family="Arial">rhythm_fidelity</text><rect x="170" y="112" width="420" height="24" fill="#e5e7eb" rx="4" /><rect x="170" y="112" width="344.4" height="24" fill="#4f46e5" rx="4" /><text x="602" y="129" font-size="13" font-family="Arial">82.0</text><text x="24" y="171" font-size="13" font-family="Arial">timing_consistency</text><rect x="170" y="154" width="420" height="24" fill="#e5e7eb" rx="4" /><rect x="170" y="154" width="331.8" height="24" fill="#4f46e5" rx="4" /><text x="602" y="171" font-size="13" font-family="Arial">79.0</text><text x="24" y="213" font-size="13" font-family="Arial">section_stability</text><rect x="170" y="196" width="420" height="24" fill="#e5e7eb" rx="4" /><rect x="170" y="196" width="369.6" height="24" fill="#4f46e5" rx="4" /><text x="602" y="213" font-size="13" font-family="Arial">88.0</text><text x="24" y="254" font-size="16" font-family="Arial">Section averages</text><rect x="40" y="270" width="620" height="100" fill="#f9fafb" stroke="#d1d5db" /><path d="M 40.0 183.8 L 350.0 195.8 L 660.0 183.2" fill="none" stroke="#059669" stroke-width="2" /><circle cx="40.0" cy="183.8" r="4" fill="#059669" /><text x="40.0" y="388" text-anchor="middle" font-size="12" font-family="Arial">S0</text><text x="40.0" y="175.8" text-anchor="middle" font-size="11" font-family="Arial">86</text><circle cx="350.0" cy="195.8" r="4" fill="#059669" /><text x="350.0" y="388" text-anchor="middle" font-size="12" font-family="Arial">S1</text><text x="350.0" y="187.8" text-anchor="middle" font-size="11" font-family="Arial">74</text><circle cx="660.0" cy="183.2" r="4" fill="#059669" /><text x="660.0" y="388" text-anchor="middle" font-size="12" font-family="Arial">S2</text><text x="660.0" y="175.2" text-anchor="middle" font-size="11" font-family="Arial">87</text></svg>
